<?xml version="1.0" standalone="no"?>
<!DOCTYPE svg PUBLIC "-//W3C//DTD SVG 20010904//EN"
 "http://www.w3.org/TR/2001/REC-SVG-20010904/DTD/svg10.dtd">
<svg version="1.0" xmlns="http://www.w3.org/2000/svg"
 width="386.000000pt" height="137.000000pt" viewBox="0 0 386.000000 137.000000"
 preserveAspectRatio="xMidYMid meet">

<g transform="translate(0.000000,137.000000) scale(0.100000,-0.100000)"
fill="#000000" stroke="none">
<path d="M1190 1250 c0 -14 7 -20 21 -20 20 0 20 -4 17 -224 -2 -123 -6 -228
-10 -231 -4 -4 -15 -4 -25 0 -17 8 -17 8 -1 12 39 10 35 91 -6 112 -34 19 -65
5 -82 -36 -13 -31 -13 -38 3 -71 43 -89 206 -69 240 29 7 21 12 103 12 222 1
180 2 187 21 187 13 0 20 7 20 20 0 19 -7 20 -105 20 -98 0 -105 -1 -105 -20z"/>
<path d="M1478 1113 c-64 -11 -102 -109 -58 -153 24 -24 48 -25 78 -4 17 12
22 25 22 60 0 27 -4 44 -12 44 -9 0 -9 3 0 12 20 20 32 -8 32 -74 0 -63 5 -58
-78 -72 -46 -8 -71 -41 -72 -94 0 -58 13 -79 59 -93 32 -9 44 -9 70 4 28 14
35 14 68 1 39 -17 78 -12 106 13 15 15 17 15 17 0 0 -15 25 -17 270 -17 263 0
270 0 270 20 0 13 -7 20 -20 20 -19 0 -20 7 -20 131 0 115 -3 136 -21 165 -34
56 -105 56 -150 1 l-16 -21 -7 21 c-14 44 -112 55 -136 15 -9 -16 -9 -16 -10
1 0 15 -11 17 -80 17 -73 0 -80 -2 -80 -20 0 -11 7 -20 15 -20 13 0 15 -23 15
-145 0 -116 -3 -145 -14 -145 -10 0 -12 11 -8 45 4 37 2 45 -12 45 -12 0 -16
-9 -16 -35 0 -19 -4 -35 -10 -35 -6 0 -10 40 -10 101 0 115 -14 175 -46 195
-23 16 -102 25 -146 17z m432 -198 c0 -128 -1 -135 -20 -135 -19 0 -20 7 -20
109 0 108 10 161 30 161 6 0 10 -49 10 -135z m170 0 c0 -128 -1 -135 -20 -135
-19 0 -20 7 -20 109 0 108 10 161 30 161 6 0 10 -49 10 -135z m-540 -69 c0
-25 -4 -48 -10 -51 -6 -4 -10 13 -10 44 0 28 5 51 10 51 6 0 10 -20 10 -44z"/>
<path d="M2346 1110 c-49 -15 -94 -76 -102 -138 -19 -150 35 -234 150 -236 66
0 110 25 131 76 19 47 19 58 1 58 -8 0 -17 -11 -20 -25 -9 -35 -41 -65 -69
-65 -41 0 -55 21 -63 88 l-7 62 87 0 86 0 0 35 c0 45 -21 94 -52 122 -28 26
-98 37 -142 23z m64 -95 c0 -41 -4 -55 -14 -55 -23 0 -29 18 -21 66 4 28 11
44 21 44 10 0 14 -14 14 -55z"/>
<path d="M2619 1109 c-34 -12 -69 -77 -69 -125 0 -72 32 -105 138 -144 46 -17
39 -70 -10 -70 -43 0 -98 53 -98 96 0 8 -7 14 -15 14 -12 0 -15 -15 -15 -75 0
-71 9 -92 27 -61 7 13 14 13 53 0 38 -13 52 -13 84 -2 55 18 79 54 80 121 1
75 -20 102 -105 140 -79 35 -89 60 -28 65 30 3 41 -2 63 -28 14 -17 26 -38 26
-46 0 -8 7 -14 15 -14 12 0 15 14 15 70 0 54 -3 70 -14 70 -8 0 -16 -5 -18
-12 -3 -9 -12 -9 -38 0 -38 14 -55 14 -91 1z"/>
<path d="M180 1020 c0 -5 11 -10 25 -10 l25 0 0 -274 c0 -151 -3 -281 -6 -290
-8 -20 -47 -21 -63 -2 -14 16 -4 46 15 46 19 0 28 44 15 69 -17 30 -45 43 -74
32 -27 -11 -37 -29 -37 -71 0 -69 41 -105 119 -105 62 0 101 18 130 60 34 51
40 96 41 328 0 200 1 207 20 207 11 0 20 5 20 10 0 6 -45 10 -115 10 -70 0
-115 -4 -115 -10z"/>
<path d="M430 1020 c0 -5 6 -10 14 -10 16 0 30 -36 96 -260 104 -352 99 -340
130 -340 29 0 25 -9 76 175 20 69 40 138 62 215 11 36 27 90 36 121 9 31 16
63 16 72 0 10 8 17 20 17 11 0 20 5 20 10 0 6 -25 10 -55 10 -30 0 -55 -4 -55
-10 0 -5 14 -10 31 -10 24 0 30 -3 25 -16 -3 -9 -9 -28 -12 -42 -3 -15 -14
-54 -24 -87 -10 -33 -30 -103 -44 -155 -15 -52 -30 -102 -33 -110 -7 -19 -24
30 -64 180 -17 63 -37 139 -45 168 -18 67 -18 62 11 62 14 0 25 5 25 10 0 6
-45 10 -115 10 -70 0 -115 -4 -115 -10z"/>
<path d="M2662 664 c-30 -21 -31 -95 -2 -124 46 -46 115 -11 115 60 0 69 -59
102 -113 64z"/>
<path d="M1090 640 c0 -11 6 -20 13 -20 7 0 41 -97 87 -250 l75 -250 32 0 c32
0 37 6 56 85 3 11 19 67 36 125 17 58 38 130 46 160 32 113 39 130 52 130 7 0
13 9 13 20 0 18 -7 20 -55 20 -48 0 -55 -2 -55 -20 0 -14 7 -20 21 -20 18 0
20 -4 14 -32 -14 -69 -76 -270 -82 -265 -2 3 -19 60 -37 128 -18 68 -36 134
-40 147 -6 18 -4 22 13 22 14 0 21 6 21 20 0 19 -7 20 -105 20 -98 0 -105 -1
-105 -20z"/>
<path d="M2453 602 l-53 -15 0 -43 c0 -32 -4 -44 -15 -44 -8 0 -15 -9 -15 -20
0 -11 7 -20 15 -20 12 0 15 -18 15 -105 0 -82 -3 -105 -14 -105 -7 0 -18 -15
-24 -32 -8 -28 -10 -19 -11 60 -1 109 -15 174 -43 199 -16 14 -37 18 -98 18
-69 0 -81 -3 -104 -24 -21 -20 -26 -34 -26 -71 0 -54 13 -70 56 -70 53 0 82
61 52 110 -13 21 -6 36 11 25 6 -3 11 -37 11 -76 l0 -69 -30 0 c-43 0 -101
-26 -107 -49 -3 -12 -11 -17 -23 -14 -13 3 -20 -4 -29 -28 -20 -57 -79 -80
-102 -38 -12 23 -16 186 -5 236 8 36 34 51 43 26 4 -9 1 -19 -5 -21 -18 -6
-15 -78 4 -96 20 -21 68 -21 85 0 7 9 12 38 12 66 -1 69 -23 90 -101 96 -114
8 -168 -44 -179 -173 -3 -41 -10 -75 -14 -75 -5 0 -9 -13 -9 -30 0 -16 -4 -30
-10 -30 -6 0 -10 43 -11 108 0 172 -20 202 -134 202 -79 0 -121 -24 -131 -76
-9 -51 11 -88 51 -92 39 -4 63 15 71 54 4 22 1 36 -11 48 -13 13 -15 20 -7 28
19 19 26 1 30 -71 l4 -68 -51 -5 c-74 -7 -101 -35 -101 -104 0 -45 4 -56 26
-73 31 -24 90 -27 118 -6 16 12 21 12 40 0 24 -17 79 -20 106 -5 10 5 24 26
30 46 l12 37 20 -32 c26 -40 66 -61 118 -61 59 0 98 24 121 73 14 32 19 37 19
19 0 -31 25 -78 45 -86 29 -11 80 -6 101 9 19 12 24 12 40 0 11 -8 37 -15 60
-15 50 0 71 21 83 81 8 44 8 44 15 14 5 -16 10 -38 13 -48 9 -35 82 -57 138
-41 27 7 52 43 60 87 6 29 4 37 -8 37 -8 0 -17 -13 -21 -30 -6 -34 -33 -50
-47 -29 -5 8 -9 71 -9 142 l0 127 55 0 55 0 0 -150 c0 -127 -2 -150 -15 -150
-8 0 -15 -7 -15 -15 0 -12 18 -15 100 -15 82 0 100 3 100 15 0 8 -9 15 -20 15
-19 0 -20 7 -20 170 l0 170 -120 0 -120 0 0 60 c0 67 2 66 -77 42z m-862 -415
c-13 -13 -15 50 -3 80 5 13 8 5 10 -26 2 -24 -2 -49 -7 -54z m619 43 c0 -27
-4 -50 -10 -50 -11 0 -14 59 -4 84 10 27 14 18 14 -34z"/>
<path d="M2882 483 c-52 -26 -76 -82 -76 -178 1 -64 5 -87 23 -117 53 -88 201
-92 262 -7 21 30 24 45 24 130 0 85 -3 99 -25 132 -14 20 -38 41 -54 47 -43
15 -117 12 -154 -7z m106 -133 c6 -133 -3 -190 -29 -190 -18 0 -19 8 -19 149
0 110 3 151 13 154 24 9 31 -15 35 -113z"/>
<path d="M3120 480 c0 -11 7 -20 15 -20 13 0 15 -23 15 -150 0 -127 -2 -150
-15 -150 -8 0 -15 -6 -15 -14 0 -12 34 -15 203 -18 119 -2 205 1 209 6 4 6 17
5 33 -2 63 -29 146 -3 165 51 13 40 13 113 -2 140 -18 35 -35 48 -96 71 -42
16 -57 27 -57 42 0 15 8 20 36 22 30 3 41 -2 63 -28 14 -17 26 -38 26 -46 0
-8 7 -14 15 -14 12 0 15 14 15 65 0 49 -3 65 -14 65 -8 0 -16 -5 -18 -11 -3
-9 -9 -9 -25 0 -31 16 -95 14 -121 -5 -54 -38 -69 -133 -29 -191 15 -23 40
-40 82 -56 51 -19 60 -27 60 -47 0 -21 -5 -25 -37 -28 -29 -2 -41 2 -62 24
-14 16 -28 41 -31 56 -4 15 -13 28 -21 28 -10 0 -14 -14 -14 -55 0 -40 -4 -55
-14 -55 -11 0 -15 28 -18 127 -6 142 -17 185 -54 202 -35 16 -86 14 -112 -5
-20 -14 -22 -14 -22 0 0 13 -14 16 -80 16 -73 0 -80 -2 -80 -20z m214 -62 c3
-13 6 -76 6 -140 l0 -118 -30 0 -30 0 0 110 c0 80 4 119 15 140 19 36 31 38
39 8z"/>
</g>
</svg>
