<?xml version="1.0" standalone="no"?>
<!DOCTYPE svg PUBLIC "-//W3C//DTD SVG 20010904//EN"
 "http://www.w3.org/TR/2001/REC-SVG-20010904/DTD/svg10.dtd">
<svg version="1.0" xmlns="http://www.w3.org/2000/svg"
 width="84.000000pt" height="84.000000pt" viewBox="0 0 84.000000 84.000000"
 preserveAspectRatio="xMidYMid meet">

<g transform="translate(0.000000,84.000000) scale(0.100000,-0.100000)"
fill="#000000" stroke="none">
<path d="M675 773 c-16 -8 -51 -36 -77 -61 l-47 -45 -167 11 c-177 11 -204 8
-204 -29 0 -39 22 -60 110 -104 50 -25 90 -47 90 -50 0 -3 -21 -32 -47 -65
-37 -48 -52 -60 -74 -60 -15 0 -39 -4 -52 -9 -20 -8 -23 -14 -19 -43 5 -38 16
-48 54 -48 25 0 29 -5 34 -40 5 -31 12 -42 30 -46 45 -12 58 -2 66 50 4 26 8
49 10 51 48 41 120 96 123 93 1 -2 23 -44 49 -95 47 -94 71 -119 106 -108 30
10 34 43 22 212 l-11 156 54 59 c91 98 100 188 18 188 -21 -1 -51 -8 -68 -17z
m85 -39 c0 -26 -20 -57 -76 -114 l-54 -55 10 -125 c5 -69 10 -149 10 -179 0
-48 -2 -52 -16 -40 -9 7 -38 57 -65 111 -49 97 -65 112 -89 83 -7 -9 -41 -37
-76 -62 -49 -36 -64 -53 -65 -72 0 -14 -4 -35 -9 -46 -9 -22 -17 -10 -22 35
-2 20 -11 27 -40 34 -48 12 -49 26 -2 26 38 0 37 -1 123 109 28 35 48 68 45
73 -3 5 -50 31 -104 58 -91 46 -118 65 -108 75 2 3 82 -1 176 -7 l172 -11 64
61 c50 49 71 62 95 62 21 0 31 -5 31 -16z"/>
<path d="M115 400 c-63 -63 -77 -82 -67 -92 10 -10 29 4 92 67 76 76 95 105
67 105 -7 0 -48 -36 -92 -80z"/>
<path d="M136 160 c-62 -64 -74 -90 -43 -90 16 0 147 132 147 148 0 30 -42 7
-104 -58z"/>
<path d="M387 142 c-65 -65 -81 -92 -54 -92 20 0 150 136 143 149 -12 18 -19
14 -89 -57z"/>
</g>
</svg>
