<?xml version="1.0" standalone="no"?>
<!DOCTYPE svg PUBLIC "-//W3C//DTD SVG 20010904//EN"
 "http://www.w3.org/TR/2001/REC-SVG-20010904/DTD/svg10.dtd">
<svg version="1.0" xmlns="http://www.w3.org/2000/svg"
 width="84.000000pt" height="84.000000pt" viewBox="0 0 84.000000 84.000000"
 preserveAspectRatio="xMidYMid meet">

<g transform="translate(0.000000,84.000000) scale(0.100000,-0.100000)"
fill="#000000" stroke="none">
<path d="M301 774 c-12 -15 -21 -33 -21 -40 0 -22 38 -54 63 -54 53 0 77 75
35 104 -32 23 -54 20 -77 -10z"/>
<path d="M303 658 c-14 -18 -49 -242 -69 -436 -13 -126 -14 -166 -5 -175 20
-20 33 9 70 152 34 132 51 172 29 70 -10 -47 -9 -65 7 -122 21 -80 38 -107 55
-91 14 14 -28 296 -43 287 -6 -4 -8 4 -4 18 3 13 9 50 13 83 l7 58 27 -43 c37
-61 131 -347 124 -380 -4 -19 -1 -28 11 -33 19 -7 45 9 45 29 0 7 12 16 27 20
54 13 55 19 13 137 -21 61 -43 115 -49 121 -7 7 -23 5 -51 -6 -41 -16 -41 -16
-50 9 -7 16 -6 31 2 43 9 14 6 27 -15 62 -14 24 -37 78 -52 119 -14 41 -32 78
-38 82 -18 12 -43 9 -54 -4z"/>
<path d="M227 514 c-25 -50 -35 -80 -28 -87 23 -23 55 32 66 111 4 28 5 52 3
52 -2 0 -21 -34 -41 -76z"/>
</g>
</svg>
